<svg xmlns="http://www.w3.org/2000/svg" viewBox="0 0 512 512" style="height: 512px; width: 512px;"><defs><filter id="shadow-1" height="300%" width="300%" x="-100%" y="-100%"><feFlood flood-color="rgba(58, 63, 94, 1)" result="flood"></feFlood><feComposite in="flood" in2="SourceGraphic" operator="atop" result="composite"></feComposite><feGaussianBlur in="composite" stdDeviation="15" result="blur"></feGaussianBlur><feOffset dx="0" dy="0" result="offset"></feOffset><feComposite in="SourceGraphic" in2="offset" operator="over"></feComposite></filter></defs><rect fill="#1b1f21" fill-opacity="1" height="512" width="512" rx="32" ry="32"></rect><g class="" transform="translate(0,0)" style=""><path d="M246.8 35.58l25.5 52.5 24.8-22.9-50.3-29.6zm109.1 13.41l-10.3 9.51 52.9 57.3 10.3-9.5-52.9-57.31zm-30.3 14.37l-57.3 52.94 66.5 72 57.3-53-66.5-71.94zM181.8 93.33l-19.5 49.17L196 187l-14.2-93.67zM75.81 127l-32.42 13.8 94.41 52.1L75.81 127zm186.09 8.9l-16.2 15-32 44.1 62.7-18.2-33.6 70.7 32.4-17.8 39.6-36.6-52.9-57.2zm232.1 2.4c-3.1.8-6.1 1.6-9.2 2.3-25.7 5.9-51.9 8.5-74.5 2.3l-69.4 64.2c4.5 23-.2 48.9-8.1 74.1-8.7 27.5-21.6 54.1-32.9 75.4 60.6 17.3 133-11.2 187.1-61.1 2.4-2.2 4.7-4.5 7-6.7V138.3zM76.71 232.6l-18.78 37.6 72.57-21.6-53.79-16zm117.19 48l-24 51.8-21-34.4-47.2 196H182l37.2-154.6-25.7 29.5.4-88.3z" fill="#e64539" fill-opacity="1" filter="url(#shadow-1)"></path></g></svg>